<svg width="113" height="29" viewBox="0 0 113 29" fill="none" xmlns="http://www.w3.org/2000/svg">
<path d="M5.472 9.368H0.096V6.2H14.736V9.368H9.36V23H5.472V9.368ZM27.5319 23L24.2919 18.32H24.0999H20.7159V23H16.8279V6.2H24.0999C25.5879 6.2 26.8759 6.448 27.9639 6.944C29.0679 7.44 29.9159 8.144 30.5079 9.056C31.0999 9.968 31.3959 11.048 31.3959 12.296C31.3959 13.544 31.0919 14.624 30.4839 15.536C29.8919 16.432 29.0439 17.12 27.9399 17.6L31.7079 23H27.5319ZM27.4599 12.296C27.4599 11.352 27.1559 10.632 26.5479 10.136C25.9399 9.624 25.0519 9.368 23.8839 9.368H20.7159V15.224H23.8839C25.0519 15.224 25.9399 14.968 26.5479 14.456C27.1559 13.944 27.4599 13.224 27.4599 12.296ZM45.5404 19.4H37.7404L36.2524 23H32.2684L39.7564 6.2H43.5964L51.1084 23H47.0284L45.5404 19.4ZM44.3164 16.448L41.6524 10.016L38.9884 16.448H44.3164ZM68.0893 6.2L60.8173 23H56.9773L49.7293 6.2H53.9293L59.0413 18.2L64.2253 6.2H68.0893ZM82.5 19.88V23H69.492V6.2H82.188V9.32H73.356V12.968H81.156V15.992H73.356V19.88H82.5ZM85.5936 6.2H89.4816V19.832H97.9056V23H85.5936V6.2Z" fill="black"/>
<circle cx="108" cy="18" r="5" fill="#BA5860"/>
</svg>
